<svg width="240" height="120" fill="none" xmlns="http://www.w3.org/2000/svg"><path d="M43.6 32.047C28.3 32.247 16 44.725 16 60c0 15.175 12.2 27.554 27.3 27.953h143.1l1.1-55.906H43.6Z" fill="url(#a)"/><path d="M188 87.953c15.464 0 28-12.515 28-27.953 0-15.438-12.536-27.953-28-27.953S160 44.562 160 60c0 15.438 12.536 27.953 28 27.953Z" fill="#00D17F"/><path d="M92 24.06c6.627 0 12-5.364 12-11.98C104 5.463 98.627.1 92 .1S80 5.463 80 12.08c0 6.616 5.373 11.98 12 11.98Z" fill="#0F6FFF"/><path d="M100 119.9c6.627 0 12-5.363 12-11.98 0-6.616-5.373-11.98-12-11.98s-12 5.364-12 11.98c0 6.617 5.373 11.98 12 11.98Z" fill="#000"/><path d="M188 87.953c-15.5 0-28-12.479-28-27.953s12.5-27.953 28-27.953v55.906Z" fill="#0052FF"/><path d="M188.5 67.42 182.956 72l.201-7.17L176 63.436l5.746-4.382-3.226-6.373 6.956 1.792L188.5 48l3.024 6.473 6.956-1.792-3.226 6.373L201 63.436l-7.157 1.394.201 7.17-5.544-4.58Z" fill="#fff"/><path d="M188 79.967c11.046 0 20-8.94 20-19.967s-8.954-19.967-20-19.967-20 8.94-20 19.967 8.954 19.967 20 19.967ZM141.4 60h-104M131.1 48.919l11.4 11.28-11.4 11.282" stroke="#0A0B0D" stroke-width="2" stroke-miterlimit="10"/><path d="M171.7 0H92.2v24.06h79.5V0Z" fill="url(#b)"/><path d="M44.1 95.84h56.6v24.06H44.1v-.001l-.2.001c-6.627 0-12-5.363-12-11.98 0-6.616 5.373-11.98 12-11.98.067 0 .133 0 .2.002v-.102Z" fill="url(#c)"/><path d="M183 12.08c0 6.062-4.923 10.98-11 10.98s-11-4.918-11-10.98c0-6.063 4.923-10.98 11-10.98s11 4.917 11 10.98ZM111.2 108.02c0 6.062-4.923 10.98-11 10.98s-11-4.918-11-10.98c0-6.063 4.923-10.98 11-10.98s11 4.917 11 10.98Z" fill="#FFD600" stroke="#000" stroke-width="2"/><path fill="url(#d)" d="M0 8h32v8H0z"/><path fill="url(#e)" d="M224 104h16v8h-16z"/><defs><linearGradient id="a" x1="146" y1="37.5" x2="73.5" y2="87.5" gradientUnits="userSpaceOnUse"><stop offset=".333" stop-color="#FFD200"/><stop offset=".75" stop-color="#00D17F"/></linearGradient><linearGradient id="b" x1="113" y1="-4" x2="151.5" y2="26.5" gradientUnits="userSpaceOnUse"><stop offset=".272" stop-color="#0F6FFF"/><stop offset=".704" stop-color="#5DE2F8"/></linearGradient><linearGradient id="c" x1="81.5" y1="120" x2="15.969" y2="96.084" gradientUnits="userSpaceOnUse"><stop offset=".135" stop-color="#EBCEF8"/><stop offset=".589" stop-color="#A524FC"/></linearGradient><linearGradient id="d" x1="9" y1="7.5" x2="27.5" y2="13.5" gradientUnits="userSpaceOnUse"><stop offset=".272" stop-color="#5CE2F8"/><stop offset=".704" stop-color="#EBCEF8"/></linearGradient><linearGradient id="e" x1="223.75" y1="112.5" x2="241.107" y2="106.463" gradientUnits="userSpaceOnUse"><stop offset=".264" stop-color="#FFD200"/><stop offset=".602" stop-color="#EBCEF8"/></linearGradient></defs></svg>